<svg xmlns="http://www.w3.org/2000/svg" width="16.291" height="16.291" viewBox="0 0 16.291 16.291">
    <path d="M14.5 4.818a.977.977 0 1 0 .977.977.977.977 0 0 0-.977-.977zm3.742 1.972a6.183 6.183 0 0 0-.375-1.979 4.024 4.024 0 0 0-.945-1.442 3.828 3.828 0 0 0-1.442-.937 5.946 5.946 0 0 0-1.98-.383C12.638 2 12.361 2 10.146 2s-2.493 0-3.356.049a5.946 5.946 0 0 0-1.979.383 3.894 3.894 0 0 0-1.442.937 3.828 3.828 0 0 0-.937 1.441 5.946 5.946 0 0 0-.383 1.98C2 7.653 2 7.93 2 10.146s0 2.493.049 3.356a5.946 5.946 0 0 0 .383 1.979 3.828 3.828 0 0 0 .937 1.442 3.894 3.894 0 0 0 1.442.937 5.946 5.946 0 0 0 1.979.383c.863.049 1.14.049 3.356.049s2.493 0 3.356-.049a5.946 5.946 0 0 0 1.979-.383 3.828 3.828 0 0 0 1.442-.937 3.951 3.951 0 0 0 .945-1.442 6.183 6.183 0 0 0 .375-1.979c0-.863.049-1.14.049-3.356s-.001-2.493-.05-3.356zm-1.466 6.61a4.57 4.57 0 0 1-.277 1.515 2.493 2.493 0 0 1-.611.937 2.6 2.6 0 0 1-.937.611 4.57 4.57 0 0 1-1.515.277c-.815.041-1.116.049-3.258.049s-2.444 0-3.258-.049a4.667 4.667 0 0 1-1.58-.24 2.664 2.664 0 0 1-.9-.611 2.444 2.444 0 0 1-.6-.937 4.513 4.513 0 0 1-.325-1.552c0-.815-.049-1.116-.049-3.258s0-2.444.049-3.258A4.513 4.513 0 0 1 3.8 5.34a2.444 2.444 0 0 1 .644-.9 2.558 2.558 0 0 1 .9-.652 4.667 4.667 0 0 1 1.548-.277c.815 0 1.116-.049 3.258-.049s2.444 0 3.258.049a4.57 4.57 0 0 1 1.515.277 2.493 2.493 0 0 1 .969.652 2.493 2.493 0 0 1 .611.9 4.57 4.57 0 0 1 .277 1.548c.041.815.049 1.116.049 3.258s-.012 2.443-.053 3.254zm-6.63-7.433a4.171 4.171 0 1 0 2.962 1.219 4.179 4.179 0 0 0-2.962-1.219zm0 6.891a2.712 2.712 0 1 1 2.712-2.712 2.712 2.712 0 0 1-2.712 2.712z" transform="translate(-2 -2)" style="fill:#fff"/>
</svg>
