<svg xmlns="http://www.w3.org/2000/svg" width="76" height="122.5" viewBox="0 0 76 122.5">
    <g data-name="Group 57515">
        <text transform="translate(38 111.5)" style="fill:#fff;font-size:30px;font-family:Poppins-SemiBold,Poppins;font-weight:600"><tspan x="-37.875" y="0">Java</tspan></text>
        <path d="M38.683 0c4.015 9.291-14.4 15.029-16.106 22.768-1.569 7.112 10.939 15.376 10.95 15.376a55.347 55.347 0 0 1-5.2-9.947C25.1 20.452 47.951 13.443 38.683 0zm12.228 12.867S34.759 13.9 33.938 24.228c-.365 4.6 4.249 7.015 4.38 10.357.108 2.732-2.738 5.019-2.738 5.019s5.179-.987 6.8-5.156c1.8-4.626-3.5-7.751-2.966-11.453.512-3.541 11.497-10.128 11.497-10.128zM25.542 36.73s-14.783-.211-14.783 3.97c0 4.369 19.352 4.694 33.171 2.008 0 0 3.673-2.527 4.654-3.468-9.057 1.848-29.7 2.053-29.7.456-.003-1.472 6.658-2.966 6.658-2.966zm28.426 0a8.9 8.9 0 0 0-4.426 1.688c3.331-.719 6.16 1.346 6.16 3.7 0 5.293-7.665 10.266-7.665 10.266S59.9 51.034 59.9 42.342c0-3.942-2.744-5.863-5.932-5.612zm-31.985 8.122c-2.27 0-5.658 1.779-5.658 3.468 0 3.394 17.065 6.006 29.7 1.049l-4.38-2.692c-8.563 2.743-24.338 1.848-19.662-1.825zm2.1 7.62c-3.108 0-5.156 1.876-5.156 3.285 0 4.357 18.565 4.8 25.916.365l-4.654-2.966c-5.489 2.321-19.278 2.675-16.107-.685zM13.725 56.4c-5.065-.1-8.35 2.173-8.35 4.061 0 10.038 51.833 9.576 51.833-.684 0-1.705-1.968-2.532-2.692-2.92 4.238 9.81-42.434 9.029-42.434 3.24 0-1.318 3.433-2.578 6.616-1.962l-2.692-1.551a18.035 18.035 0 0 0-2.281-.184zm48.958 6.753C54.8 70.62 34.827 73.329 14.729 68.715c20.093 8.224 47.857 3.61 47.954-5.567z" transform="translate(3.971)" style="fill:#fcae18"/>
    </g>
</svg>
