<svg xmlns="http://www.w3.org/2000/svg" width="17.375" height="16.281" viewBox="0 0 17.375 16.281">
    <path d="M16.552 11.911a4.722 4.722 0 0 1-3.216-2.685l-.009-.019a.672.672 0 0 1-.077-.553c.119-.279.577-.424.881-.52a3.15 3.15 0 0 0 .239-.081 1.836 1.836 0 0 0 .653-.389.613.613 0 0 0 .2-.444.7.7 0 0 0-.526-.606.939.939 0 0 0-.356-.068.819.819 0 0 0-.332.067 1.869 1.869 0 0 1-.682.193.622.622 0 0 1-.226-.049l.02-.315v-.047a8.061 8.061 0 0 0-.207-3.295 4.457 4.457 0 0 0-1-1.428 4.175 4.175 0 0 0-1.2-.786A4.791 4.791 0 0 0 8.844.5h-.322A4.785 4.785 0 0 0 6.65.9a4.17 4.17 0 0 0-1.194.786 4.456 4.456 0 0 0-1 1.423 8.051 8.051 0 0 0-.208 3.289l.022.361a.652.652 0 0 1-.27.049 1.789 1.789 0 0 1-.729-.194A.649.649 0 0 0 3 6.557a.986.986 0 0 0-.49.136.672.672 0 0 0-.347.44.6.6 0 0 0 .234.572A2 2 0 0 0 3 8.053c.07.027.152.053.239.081.3.095.763.24.882.52a.667.667 0 0 1-.077.553l-.008.019a5.382 5.382 0 0 1-.822 1.274 4.616 4.616 0 0 1-1 .874 3.687 3.687 0 0 1-1.4.541.382.382 0 0 0-.321.4.5.5 0 0 0 .039.166 1.024 1.024 0 0 0 .554.472 6.38 6.38 0 0 0 1.6.415 1.957 1.957 0 0 1 .1.35c.026.122.055.249.094.382a.419.419 0 0 0 .439.318 2.074 2.074 0 0 0 .377-.052 4.238 4.238 0 0 1 .859-.1 3.847 3.847 0 0 1 .615.051 2.933 2.933 0 0 1 1.147.589 3.711 3.711 0 0 0 2.262.879h.201a3.723 3.723 0 0 0 2.262-.877 2.933 2.933 0 0 1 1.147-.589 3.847 3.847 0 0 1 .615-.051 4.329 4.329 0 0 1 .859.091 2.082 2.082 0 0 0 .377.046h.019a.414.414 0 0 0 .42-.312c.039-.131.067-.254.094-.379a2.046 2.046 0 0 1 .1-.349 6.367 6.367 0 0 0 1.6-.415 1.024 1.024 0 0 0 .553-.47.48.48 0 0 0 .04-.168.38.38 0 0 0-.32-.4z" transform="translate(.001)" style="fill:none;stroke:#fff;stroke-miterlimit:10"/>
</svg>
