<svg xmlns="http://www.w3.org/2000/svg" xmlns:xlink="http://www.w3.org/1999/xlink" width="100" height="85.555" viewBox="0 0 100 85.555">
    <defs>
        <linearGradient id="zqf7i8jkxa" x1="1.02" y1=".999" x2=".122" y2="1.604" gradientUnits="objectBoundingBox">
            <stop offset="0" stop-color="#a433f0"/>
            <stop offset="1" stop-color="#bebebf"/>
        </linearGradient>
        <linearGradient id="6cp8yv4l0b" x1=".27" y1=".738" x2=".95" y2=".5" gradientUnits="objectBoundingBox">
            <stop offset="0" stop-color="#9e66c4"/>
            <stop offset="1" stop-color="#814ba6"/>
        </linearGradient>
        <linearGradient id="ot1m9lq4ac" x1=".957" y1="1.141" x2=".104" y2="1.741" xlink:href="#zqf7i8jkxa"/>
        <linearGradient id="bn3xdvyzgd" x1="1" y1="-.027" x2=".106" y2="-.036" xlink:href="#zqf7i8jkxa"/>
    </defs>
    <g data-name="Group 5">
        <path data-name="Path 28" d="M80.877 307.132a24.906 24.906 0 0 1 6.392-4.3c10.011-4.679 20.218-1.339 25.271-6.413a8.758 8.758 0 0 0 1.727-2.494c-2.383 20.604-18.676 5.984-33.39 13.207z" transform="translate(-50.867 -287.9)" style="fill:url(#zqf7i8jkxa)"/>
        <path data-name="Path 29" d="M124.147 300.943c-3.574 11.01-14.169 5.152-25.271 6.413 10.011-4.68 20.218-1.339 25.271-6.413z" transform="translate(-62.474 -292.428)" style="fill:url(#6cp8yv4l0b)"/>
    </g>
    <g data-name="Group 6">
        <path data-name="Path 30" d="M82.585 287.537a20.09 20.09 0 0 0 6.262.139c8.918-1.2 14.511-8.022 20.182-6.761a7 7 0 0 1 2.266.955c-10.533-13.149-15.453 4.135-28.71 5.667z" transform="translate(-51.969 -276.966)" style="fill:url(#ot1m9lq4ac)"/>
        <path data-name="Path 31" d="M120.4 284.368c-7.213-6.006-11.987 2.718-20.182 6.761 8.919-1.205 14.512-8.023 20.182-6.761z" transform="translate(-63.341 -280.418)" style="fill:url(#6cp8yv4l0b)"/>
    </g>
    <g data-name="Group 7">
        <path data-name="Path 32" d="M77.919 338.537a28.393 28.393 0 0 1 8.79-.994c12.691.557 21.4 9.432 29.223 6.935a9.928 9.928 0 0 0 3.068-1.631c-13.179 19.833-22.247-3.847-41.081-4.31z" transform="translate(-48.96 -316.012)" style="fill:url(#bn3xdvyzgd)"/>
        <path data-name="Path 33" d="M131.892 344.53c-9.4 9.366-17.2-2.294-29.223-6.935 12.691.556 21.404 9.432 29.223 6.935z" transform="translate(-64.92 -316.064)" style="fill:url(#6cp8yv4l0b)"/>
    </g>
    <text transform="translate(0 81.555)" style="fill:#fff;font-size:20px;font-family:Philosopher-Bold,Philosopher;font-weight:700;letter-spacing:.4em"><tspan x="0" y="0">ELHAM</tspan></text>
</svg>
